<?xml version="1.0" encoding="utf-8"?>
<!-- Generator: Adobe Illustrator 23.0.1, SVG Export Plug-In . SVG Version: 6.00 Build 0)  -->
<svg version="1.1" id="Layer_1" xmlns="http://www.w3.org/2000/svg" xmlns:xlink="http://www.w3.org/1999/xlink" x="0px" y="0px"
	 viewBox="0 0 64 64" style="enable-background:new 0 0 64 64;" xml:space="preserve">
<style type="text/css">
	.st0{fill:#1568AD;}
	.st1{fill:#01B2C2;}
	.st2{fill:#B2D78F;}
	.st3{fill:#CFD4D7;}
</style>
<title>FS Due Icon</title>
<desc>Created with Sketch.</desc>
<g>
	<path class="st0" d="M54.2,16.2c0.5,0.5,1,1.2,1.3,1.8L34.8,38.8l-3.1-3.1L52.3,15C53,15.3,53.6,15.7,54.2,16.2z"/>
	<path class="st1" d="M48.2,55.2c-0.5,0.5-1.2,1-1.8,1.3L25.7,35.8l3.1-3.1l20.7,20.7C49.1,54,48.7,54.6,48.2,55.2z"/>
	<path class="st0" d="M9.2,49.1c-0.5-0.5-1-1.2-1.3-1.8l20.7-20.7l3.1,3.1L11.1,50.4C10.4,50.1,9.8,49.7,9.2,49.1z"/>
	<path class="st1" d="M15.2,10.2c0.5-0.5,1.2-1,1.8-1.3l20.6,20.6l-3.1,3.1L14,12.1C14.3,11.4,14.7,10.8,15.2,10.2z"/>
	<path class="st1" d="M54.2,49.2c-0.5,0.5-1.2,1-1.8,1.3L38.7,36.8l3.1-3.1l13.6,13.6C55.1,48,54.7,48.6,54.2,49.2z"/>
	<path class="st1" d="M9.2,16.2c0.5-0.5,1.2-1,1.8-1.3l13.6,13.6l-3.1,3.1L8,18.1C8.3,17.4,8.7,16.8,9.2,16.2z"/>
	<path class="st0" d="M48.2,10.2c0.5,0.5,1,1.2,1.3,1.8L35.8,25.7l-3.1-3.1L46.3,9C47,9.3,47.6,9.7,48.2,10.2z"/>
	<path class="st0" d="M15.2,55.2c-0.5-0.5-1-1.2-1.3-1.8l13.6-13.6l3.1,3.1L17.1,56.4C16.4,56.1,15.8,55.7,15.2,55.2z"/>
	<path class="st2" d="M35.6,14.3c-2.1,2.1-5.6,2.1-7.7,0c-2.1-2.1-2.1-5.6,0-7.7c2.1-2.1,5.6-2.1,7.7,0
		C37.7,8.7,37.7,12.2,35.6,14.3z"/>
	<ellipse class="st3" cx="54" cy="32.7" rx="5.4" ry="5.4"/>
	<path class="st3" d="M35.6,58.7c-2.1,2.1-5.6,2.1-7.7,0c-2.1-2.1-2.1-5.6,0-7.7c2.1-2.1,5.6-2.1,7.7,0
		C37.7,53.1,37.7,56.6,35.6,58.7z"/>
	<path class="st3" d="M13.3,36.5c-2.1,2.1-5.6,2.1-7.7,0c-2.1-2.1-2.1-5.6,0-7.7c2.1-2.1,5.6-2.1,7.7,0C15.4,31,15.4,34.4,13.3,36.5
		z"/>
</g>
</svg>
